<svg xmlns="http://www.w3.org/2000/svg" width="1920" height="1080"><path d="M420,1443L-236,1479L956,1454Z" fill="#dad6d5" stroke="#dad6d5" stroke-width="1.51"/><path d="M1220,1375L956,1454L1772,1366Z" fill="#d1cccb" stroke="#d1cccb" stroke-width="1.51"/><path d="M1772,1366L956,1454L2011,1404Z" fill="#cec9c8" stroke="#cec9c8" stroke-width="1.51"/><path d="M2005,-112L2171,-64L2206,-323Z" fill="#dfdcdb" stroke="#dfdcdb" stroke-width="1.51"/><path d="M2011,1404L2216,1392L2221,1121Z" fill="#c9c4c3" stroke="#c9c4c3" stroke-width="1.51"/><path d="M1947,1174L2011,1404L2221,1121Z" fill="#cbc6c5" stroke="#cbc6c5" stroke-width="1.51"/><path d="M2193,731L2139,993L2221,1121Z" fill="#cec9c8" stroke="#cec9c8" stroke-width="1.51"/><path d="M1892,118L2004,489L2236,383Z" fill="#d8d4d3" stroke="#d8d4d3" stroke-width="1.51"/><path d="M2004,489L2193,731L2236,383Z" fill="#d4d0cf" stroke="#d4d0cf" stroke-width="1.51"/><path d="M2193,731L2221,1121L2236,383Z" fill="#d0cccb" stroke="#d0cccb" stroke-width="1.51"/><path d="M1892,118L2236,383L2258,205Z" fill="#d9d5d4" stroke="#d9d5d4" stroke-width="1.51"/><path d="M2171,-64L1892,118L2258,205Z" fill="#dcd8d7" stroke="#dcd8d7" stroke-width="1.51"/><path d="M2206,-323L2171,-64L2258,205Z" fill="#ddd9d8" stroke="#ddd9d8" stroke-width="1.51"/><path d="M2236,383L2221,1121L2258,205Z" fill="#d3cfce" stroke="#d3cfce" stroke-width="1.51"/><path d="M1379,1328L1220,1375L1772,1366Z" fill="#d0cbca" stroke="#d0cbca" stroke-width="1.51"/><path d="M2004,489L1922,655L2193,731Z" fill="#d4d0cf" stroke="#d4d0cf" stroke-width="1.51"/><path d="M1903,833L2139,993L2193,731Z" fill="#d0cccb" stroke="#d0cccb" stroke-width="1.51"/><path d="M2139,993L1947,1174L2221,1121Z" fill="#cdc8c7" stroke="#cdc8c7" stroke-width="1.51"/><path d="M2005,-112L1892,118L2171,-64Z" fill="#dedad9" stroke="#dedad9" stroke-width="1.51"/><path d="M1419,-412L1692,-331L1968,-408Z" fill="#e7e4e3" stroke="#e7e4e3" stroke-width="1.51"/><path d="M1968,-408L2005,-112L2206,-323Z" fill="#e2dedd" stroke="#e2dedd" stroke-width="1.51"/><path d="M1922,655L1903,833L2193,731Z" fill="#d3cecd" stroke="#d3cecd" stroke-width="1.51"/><path d="M1903,833L1947,1174L2139,993Z" fill="#cfcac9" stroke="#cfcac9" stroke-width="1.51"/><path d="M1903,833L1783,1118L1947,1174Z" fill="#d0cbca" stroke="#d0cbca" stroke-width="1.51"/><path d="M1892,118L1762,454L2004,489Z" fill="#dad6d5" stroke="#dad6d5" stroke-width="1.51"/><path d="M1673,-94L1892,118L2005,-112Z" fill="#e0dcdb" stroke="#e0dcdb" stroke-width="1.51"/><path d="M1968,-408L1692,-331L2005,-112Z" fill="#e3e0df" stroke="#e3e0df" stroke-width="1.51"/><path d="M1692,-331L1673,-94L2005,-112Z" fill="#e3dfde" stroke="#e3dfde" stroke-width="1.51"/><path d="M1947,1174L1772,1366L2011,1404Z" fill="#ccc7c6" stroke="#ccc7c6" stroke-width="1.51"/><path d="M1762,454L1922,655L2004,489Z" fill="#d7d3d2" stroke="#d7d3d2" stroke-width="1.51"/><path d="M1728,119L1762,454L1892,118Z" fill="#dcd9d8" stroke="#dcd9d8" stroke-width="1.51"/><path d="M1762,454L1764,625L1922,655Z" fill="#d7d3d2" stroke="#d7d3d2" stroke-width="1.51"/><path d="M1673,-94L1728,119L1892,118Z" fill="#e0dcdb" stroke="#e0dcdb" stroke-width="1.51"/><path d="M1678,861L1783,1118L1903,833Z" fill="#d2cecd" stroke="#d2cecd" stroke-width="1.51"/><path d="M1764,625L1903,833L1922,655Z" fill="#d5d1d0" stroke="#d5d1d0" stroke-width="1.51"/><path d="M1783,1118L1772,1366L1947,1174Z" fill="#cec9c8" stroke="#cec9c8" stroke-width="1.51"/><path d="M1764,625L1678,861L1903,833Z" fill="#d5d0cf" stroke="#d5d0cf" stroke-width="1.51"/><path d="M393,-392L946,-260L1419,-412Z" fill="#efeceb" stroke="#efeceb" stroke-width="1.51"/><path d="M1728,119L1533,457L1762,454Z" fill="#dcd9d8" stroke="#dcd9d8" stroke-width="1.51"/><path d="M1762,454L1533,457L1764,625Z" fill="#dad5d4" stroke="#dad5d4" stroke-width="1.51"/><path d="M1387,1150L1379,1328L1772,1366Z" fill="#d0cccb" stroke="#d0cccb" stroke-width="1.51"/><path d="M1678,861L1418,960L1783,1118Z" fill="#d3cfce" stroke="#d3cfce" stroke-width="1.51"/><path d="M1418,960L1387,1150L1783,1118Z" fill="#d3cfce" stroke="#d3cfce" stroke-width="1.51"/><path d="M1387,1150L1772,1366L1783,1118Z" fill="#cfcbca" stroke="#cfcbca" stroke-width="1.51"/><path d="M1410,698L1678,861L1764,625Z" fill="#d7d3d2" stroke="#d7d3d2" stroke-width="1.51"/><path d="M1409,86L1533,457L1728,119Z" fill="#dfdcdb" stroke="#dfdcdb" stroke-width="1.51"/><path d="M1533,457L1410,698L1764,625Z" fill="#dad6d5" stroke="#dad6d5" stroke-width="1.51"/><path d="M1514,-61L1673,-94L1692,-331Z" fill="#e4e1e0" stroke="#e4e1e0" stroke-width="1.51"/><path d="M1673,-94L1514,-61L1728,119Z" fill="#e2dedd" stroke="#e2dedd" stroke-width="1.51"/><path d="M1514,-61L1409,86L1728,119Z" fill="#e2dedd" stroke="#e2dedd" stroke-width="1.51"/><path d="M1419,-412L1514,-61L1692,-331Z" fill="#e7e4e3" stroke="#e7e4e3" stroke-width="1.51"/><path d="M1410,698L1418,960L1678,861Z" fill="#d7d2d1" stroke="#d7d2d1" stroke-width="1.51"/><path d="M946,-260L1293,-331L1419,-412Z" fill="#ebe8e7" stroke="#ebe8e7" stroke-width="1.51"/><path d="M1293,-331L1291,-168L1419,-412Z" fill="#e9e6e5" stroke="#e9e6e5" stroke-width="1.51"/><path d="M1419,-412L1291,-168L1514,-61Z" fill="#e8e4e3" stroke="#e8e4e3" stroke-width="1.51"/><path d="M1252,338L1410,698L1533,457Z" fill="#ddd9d8" stroke="#ddd9d8" stroke-width="1.51"/><path d="M1409,86L1252,338L1533,457Z" fill="#e0dcdb" stroke="#e0dcdb" stroke-width="1.51"/><path d="M1252,338L1140,600L1410,698Z" fill="#dedad9" stroke="#dedad9" stroke-width="1.51"/><path d="M1410,698L1262,892L1418,960Z" fill="#d8d4d3" stroke="#d8d4d3" stroke-width="1.51"/><path d="M1291,-168L1409,86L1514,-61Z" fill="#e5e2e1" stroke="#e5e2e1" stroke-width="1.51"/><path d="M393,-392L651,-263L946,-260Z" fill="#f1eeed" stroke="#f1eeed" stroke-width="1.51"/><path d="M1262,892L1136,1087L1387,1150Z" fill="#d6d2d1" stroke="#d6d2d1" stroke-width="1.51"/><path d="M1291,-168L1125,102L1409,86Z" fill="#e5e2e1" stroke="#e5e2e1" stroke-width="1.51"/><path d="M1125,102L1252,338L1409,86Z" fill="#e3e0df" stroke="#e3e0df" stroke-width="1.51"/><path d="M1262,892L1387,1150L1418,960Z" fill="#d6d2d1" stroke="#d6d2d1" stroke-width="1.51"/><path d="M1220,1375L1379,1328L1387,1150Z" fill="#d2cecd" stroke="#d2cecd" stroke-width="1.51"/><path d="M1140,600L1262,892L1410,698Z" fill="#dbd7d6" stroke="#dbd7d6" stroke-width="1.51"/><path d="M1136,1087L1220,1375L1387,1150Z" fill="#d4d0cf" stroke="#d4d0cf" stroke-width="1.51"/><path d="M1125,102L1040,241L1252,338Z" fill="#e3e0df" stroke="#e3e0df" stroke-width="1.51"/><path d="M1140,600L999,709L1262,892Z" fill="#dcd9d8" stroke="#dcd9d8" stroke-width="1.51"/><path d="M975,-54L1125,102L1291,-168Z" fill="#e7e5e4" stroke="#e7e5e4" stroke-width="1.51"/><path d="M946,-260L1291,-168L1293,-331Z" fill="#ebe7e6" stroke="#ebe7e6" stroke-width="1.51"/><path d="M946,-260L975,-54L1291,-168Z" fill="#eae7e6" stroke="#eae7e6" stroke-width="1.51"/><path d="M776,1392L420,1443L956,1454Z" fill="#d6d2d1" stroke="#d6d2d1" stroke-width="1.51"/><path d="M1040,241L894,440L1140,600Z" fill="#e2dedd" stroke="#e2dedd" stroke-width="1.51"/><path d="M1136,1087L954,1164L1220,1375Z" fill="#d6d1d0" stroke="#d6d1d0" stroke-width="1.51"/><path d="M1040,241L1140,600L1252,338Z" fill="#e1dddc" stroke="#e1dddc" stroke-width="1.51"/><path d="M897,933L1136,1087L1262,892Z" fill="#d9d5d4" stroke="#d9d5d4" stroke-width="1.51"/><path d="M999,709L897,933L1262,892Z" fill="#dbd8d7" stroke="#dbd8d7" stroke-width="1.51"/><path d="M954,1164L956,1454L1220,1375Z" fill="#d4d0cf" stroke="#d4d0cf" stroke-width="1.51"/><path d="M897,933L954,1164L1136,1087Z" fill="#d9d5d4" stroke="#d9d5d4" stroke-width="1.51"/><path d="M894,440L999,709L1140,600Z" fill="#e0dcdb" stroke="#e0dcdb" stroke-width="1.51"/><path d="M975,-54L1040,241L1125,102Z" fill="#e6e3e2" stroke="#e6e3e2" stroke-width="1.51"/><path d="M954,1164L776,1392L956,1454Z" fill="#d6d2d1" stroke="#d6d2d1" stroke-width="1.51"/><path d="M738,398L894,440L1040,241Z" fill="#e4e1e0" stroke="#e4e1e0" stroke-width="1.51"/><path d="M639,193L738,398L1040,241Z" fill="#e6e3e2" stroke="#e6e3e2" stroke-width="1.51"/><path d="M975,-54L639,193L1040,241Z" fill="#e8e4e3" stroke="#e8e4e3" stroke-width="1.51"/><path d="M796,-122L639,193L975,-54Z" fill="#ebe7e6" stroke="#ebe7e6" stroke-width="1.51"/><path d="M946,-260L796,-122L975,-54Z" fill="#ece9e8" stroke="#ece9e8" stroke-width="1.51"/><path d="M728,702L897,933L999,709Z" fill="#dedbda" stroke="#dedbda" stroke-width="1.51"/><path d="M894,440L728,702L999,709Z" fill="#e1dddc" stroke="#e1dddc" stroke-width="1.51"/><path d="M661,1250L776,1392L954,1164Z" fill="#d8d4d3" stroke="#d8d4d3" stroke-width="1.51"/><path d="M897,933L628,969L954,1164Z" fill="#dbd8d7" stroke="#dbd8d7" stroke-width="1.51"/><path d="M628,969L661,1250L954,1164Z" fill="#dbd7d6" stroke="#dbd7d6" stroke-width="1.51"/><path d="M651,-263L796,-122L946,-260Z" fill="#eeebea" stroke="#eeebea" stroke-width="1.51"/><path d="M738,398L728,702L894,440Z" fill="#e3e0df" stroke="#e3e0df" stroke-width="1.51"/><path d="M728,702L628,969L897,933Z" fill="#dfdad9" stroke="#dfdad9" stroke-width="1.51"/><path d="M242,1394L-236,1479L420,1443Z" fill="#ddd9d8" stroke="#ddd9d8" stroke-width="1.51"/><path d="M541,831L628,969L728,702Z" fill="#e0dddc" stroke="#e0dddc" stroke-width="1.51"/><path d="M494,623L728,702L738,398Z" fill="#e4e1e0" stroke="#e4e1e0" stroke-width="1.51"/><path d="M651,-263L518,-29L796,-122Z" fill="#eeebea" stroke="#eeebea" stroke-width="1.51"/><path d="M518,-29L639,193L796,-122Z" fill="#ece9e8" stroke="#ece9e8" stroke-width="1.51"/><path d="M487,435L494,623L738,398Z" fill="#e6e2e1" stroke="#e6e2e1" stroke-width="1.51"/><path d="M661,1250L420,1443L776,1392Z" fill="#d8d4d3" stroke="#d8d4d3" stroke-width="1.51"/><path d="M628,969L486,1173L661,1250Z" fill="#dcd8d7" stroke="#dcd8d7" stroke-width="1.51"/><path d="M639,193L487,435L738,398Z" fill="#e7e4e3" stroke="#e7e4e3" stroke-width="1.51"/><path d="M494,623L541,831L728,702Z" fill="#e2dfde" stroke="#e2dfde" stroke-width="1.51"/><path d="M518,-29L422,154L639,193Z" fill="#ece9e8" stroke="#ece9e8" stroke-width="1.51"/><path d="M422,154L487,435L639,193Z" fill="#eae7e6" stroke="#eae7e6" stroke-width="1.51"/><path d="M486,1173L420,1443L661,1250Z" fill="#dbd7d6" stroke="#dbd7d6" stroke-width="1.51"/><path d="M393,-392L518,-29L651,-263Z" fill="#f1efee" stroke="#f1efee" stroke-width="1.51"/><path d="M393,-392L289,-100L518,-29Z" fill="#f1efee" stroke="#f1efee" stroke-width="1.51"/><path d="M541,831L486,1173L628,969Z" fill="#dfdbda" stroke="#dfdbda" stroke-width="1.51"/><path d="M-82,-347L203,-309L393,-392Z" fill="#f7f4f3" stroke="#f7f4f3" stroke-width="1.51"/><path d="M422,154L258,241L487,435Z" fill="#ebe8e7" stroke="#ebe8e7" stroke-width="1.51"/><path d="M255,607L238,893L494,623Z" fill="#e5e2e1" stroke="#e5e2e1" stroke-width="1.51"/><path d="M494,623L238,893L541,831Z" fill="#e3e0df" stroke="#e3e0df" stroke-width="1.51"/><path d="M238,893L486,1173L541,831Z" fill="#e1dddc" stroke="#e1dddc" stroke-width="1.51"/><path d="M-83,1389L-236,1479L242,1394Z" fill="#dedbda" stroke="#dedbda" stroke-width="1.51"/><path d="M242,1394L420,1443L486,1173Z" fill="#dcd8d7" stroke="#dcd8d7" stroke-width="1.51"/><path d="M238,893L175,1182L486,1173Z" fill="#e0dddc" stroke="#e0dddc" stroke-width="1.51"/><path d="M487,435L255,607L494,623Z" fill="#e7e3e2" stroke="#e7e3e2" stroke-width="1.51"/><path d="M289,-100L422,154L518,-29Z" fill="#efeceb" stroke="#efeceb" stroke-width="1.51"/><path d="M203,-309L289,-100L393,-392Z" fill="#f4f2f1" stroke="#f4f2f1" stroke-width="1.51"/><path d="M175,1182L242,1394L486,1173Z" fill="#dddad9" stroke="#dddad9" stroke-width="1.51"/><path d="M258,241L180,432L487,435Z" fill="#eae7e6" stroke="#eae7e6" stroke-width="1.51"/><path d="M180,432L255,607L487,435Z" fill="#e9e5e4" stroke="#e9e5e4" stroke-width="1.51"/><path d="M289,-100L258,241L422,154Z" fill="#eeebea" stroke="#eeebea" stroke-width="1.51"/><path d="M-24,712L238,893L255,607Z" fill="#e7e3e2" stroke="#e7e3e2" stroke-width="1.51"/><path d="M-111,-41L-122,208L258,241Z" fill="#f1eeed" stroke="#f1eeed" stroke-width="1.51"/><path d="M-111,-41L258,241L289,-100Z" fill="#f1eeed" stroke="#f1eeed" stroke-width="1.51"/><path d="M203,-309L-111,-41L289,-100Z" fill="#f4f2f1" stroke="#f4f2f1" stroke-width="1.51"/><path d="M-81,1102L175,1182L238,893Z" fill="#e3dfde" stroke="#e3dfde" stroke-width="1.51"/><path d="M-122,208L-28,327L258,241Z" fill="#efeceb" stroke="#efeceb" stroke-width="1.51"/><path d="M-28,327L180,432L258,241Z" fill="#edeae9" stroke="#edeae9" stroke-width="1.51"/><path d="M180,432L-24,712L255,607Z" fill="#e9e6e5" stroke="#e9e6e5" stroke-width="1.51"/><path d="M-82,-347L-111,-41L203,-309Z" fill="#f7f4f3" stroke="#f7f4f3" stroke-width="1.51"/><path d="M-125,894L-81,1102L238,893Z" fill="#e5e2e1" stroke="#e5e2e1" stroke-width="1.51"/><path d="M175,1182L-83,1389L242,1394Z" fill="#dedbda" stroke="#dedbda" stroke-width="1.51"/><path d="M-24,712L-125,894L238,893Z" fill="#e7e4e3" stroke="#e7e4e3" stroke-width="1.51"/><path d="M-81,1102L-83,1389L175,1182Z" fill="#e1dedd" stroke="#e1dedd" stroke-width="1.51"/><path d="M-28,327L-24,712L180,432Z" fill="#ece8e7" stroke="#ece8e7" stroke-width="1.51"/><path d="M-215,141L-122,208L-111,-41Z" fill="#f3f1f0" stroke="#f3f1f0" stroke-width="1.51"/><path d="M-258,-280L-111,-41L-82,-347Z" fill="#f9f6f5" stroke="#f9f6f5" stroke-width="1.51"/><path d="M-265,1230L-83,1389L-81,1102Z" fill="#e3dfde" stroke="#e3dfde" stroke-width="1.51"/><path d="M-366,359L-280,739L-28,327Z" fill="#efeceb" stroke="#efeceb" stroke-width="1.51"/><path d="M-28,327L-280,739L-24,712Z" fill="#ece9e8" stroke="#ece9e8" stroke-width="1.51"/><path d="M-280,739L-125,894L-24,712Z" fill="#e9e6e5" stroke="#e9e6e5" stroke-width="1.51"/><path d="M-122,208L-366,359L-28,327Z" fill="#f1eeed" stroke="#f1eeed" stroke-width="1.51"/><path d="M-258,-280L-228,-31L-111,-41Z" fill="#f7f5f4" stroke="#f7f5f4" stroke-width="1.51"/><path d="M-228,-31L-215,141L-111,-41Z" fill="#f5f3f2" stroke="#f5f3f2" stroke-width="1.51"/><path d="M-265,1230L-236,1479L-83,1389Z" fill="#e1dedd" stroke="#e1dedd" stroke-width="1.51"/><path d="M-125,894L-259,950L-81,1102Z" fill="#e6e3e2" stroke="#e6e3e2" stroke-width="1.51"/><path d="M-259,950L-265,1230L-81,1102Z" fill="#e5e2e1" stroke="#e5e2e1" stroke-width="1.51"/><path d="M-215,141L-366,359L-122,208Z" fill="#f2f0ef" stroke="#f2f0ef" stroke-width="1.51"/><path d="M-280,739L-259,950L-125,894Z" fill="#e9e6e5" stroke="#e9e6e5" stroke-width="1.51"/><path d="M-228,-31L-366,359L-215,141Z" fill="#f4f2f1" stroke="#f4f2f1" stroke-width="1.51"/><path d="M-258,-280L-366,359L-228,-31Z" fill="#f6f4f3" stroke="#f6f4f3" stroke-width="1.51"/><path d="M-280,739L-265,1230L-259,950Z" fill="#e8e5e4" stroke="#e8e5e4" stroke-width="1.51"/><path d="M-280,739L-366,359L-265,1230Z" fill="#ebe8e7" stroke="#ebe8e7" stroke-width="1.51"/></svg>